<svg width="489" height="440" viewBox="0 0 489 440" fill="none" xmlns="http://www.w3.org/2000/svg">
<path fill-rule="evenodd" clip-rule="evenodd" d="M488.787 0H0V94.667H190.019L189.679 94.8394H360.864L361.204 94.667H488.787V0ZM361.204 94.667L453.04 48.1493H281.855L190.019 94.667H361.204ZM488.787 114.953H0V209.62H488.787V114.953ZM0 229.906H488.787V324.573H360.997L453.04 276.493H281.855L189.812 324.573H0V229.906ZM189.812 324.573L189.679 324.642H360.864L360.997 324.573H189.812ZM488.787 344.858H0V439.525H488.787V344.858ZM125.99 396.137L33.5585 439.179H205.218L297.65 396.137H125.99ZM31.3699 209.376L123.546 155.391H294.732L202.555 209.376H31.3699Z" fill="white"/>
</svg>
