<svg width="2369" height="482" viewBox="0 0 2369 482" fill="none" xmlns="http://www.w3.org/2000/svg">
<path d="M741.4 403L718.6 335.8H588.2L565.4 403H519L621.4 121.4H685.4L787.8 403H741.4ZM707 300.6L660.6 163C658.467 155.8 657.133 150.2 656.6 146.2C656.6 145.933 656.467 145.4 656.2 144.6C656.2 143.533 655.933 142.733 655.4 142.2C654.867 141.667 654.2 141.4 653.4 141.4C652.333 141.4 651.533 141.8 651 142.6C650.733 143.4 650.467 144.2 650.2 145C650.2 145.533 650.2 145.933 650.2 146.2C649.667 150.2 648.333 155.8 646.2 163L599.8 300.6H707ZM987.825 479.8H949.425V385.8C949.425 378.6 950.758 371.4 953.425 364.2C954.492 362.067 955.025 360.333 955.025 359C955.025 357.4 954.225 356.467 952.625 356.2H951.825C950.492 356.2 949.425 357.4 948.625 359.8C943.825 374.2 935.158 385.533 922.625 393.8C910.358 402.067 896.092 406.2 879.825 406.2C862.492 406.2 846.892 401.667 833.025 392.6C819.425 383.533 808.758 371 801.025 355C793.292 338.733 789.425 320.6 789.425 300.6C789.425 280.6 793.292 262.6 801.025 246.6C808.758 230.333 819.425 217.667 833.025 208.6C846.892 199.533 862.492 195 879.825 195C896.092 195 910.492 199.133 923.025 207.4C935.558 215.667 944.092 226.733 948.625 240.6C949.692 244.067 951.292 245.4 953.425 244.6C954.758 244.333 955.425 243.533 955.425 242.2C955.425 241.133 955.158 240.067 954.625 239C954.092 237.667 953.692 236.733 953.425 236.2C950.758 229.267 949.425 221.933 949.425 214.2V198.2H987.825V479.8ZM887.825 371C899.558 371 910.092 367.8 919.425 361.4C929.025 355 936.358 346.467 941.425 335.8C946.758 324.867 949.425 313.133 949.425 300.6C949.425 288.067 946.758 276.467 941.425 265.8C936.358 254.867 929.025 246.2 919.425 239.8C910.092 233.4 899.558 230.2 887.825 230.2C868.625 230.2 853.825 237 843.425 250.6C833.025 263.933 827.825 280.6 827.825 300.6C827.825 320.6 833.025 337.4 843.425 351C853.825 364.333 868.625 371 887.825 371ZM1097.42 406.2C1073.15 406.2 1054.35 399.133 1041.02 385C1027.95 370.867 1021.42 349.133 1021.42 319.8V198.2H1059.82V311.8C1059.82 334.2 1063.95 349.933 1072.22 359C1080.75 368.067 1092.35 372.6 1107.02 372.6C1117.15 372.6 1126.89 369.4 1136.22 363C1145.82 356.333 1153.55 347 1159.42 335C1165.55 323 1168.62 309.267 1168.62 293.8V198.2H1207.02V403H1168.62V389.4C1168.62 379.8 1170.09 370.733 1173.02 362.2C1174.09 359.533 1174.62 357.667 1174.62 356.6C1174.62 355.267 1173.95 354.333 1172.62 353.8H1171.82C1170.75 353.8 1169.55 355 1168.22 357.4C1162.09 369.667 1152.89 380.867 1140.62 391C1128.35 401.133 1113.95 406.2 1097.42 406.2ZM1234.36 345.8C1234.36 306.6 1258.9 285.267 1307.96 281.8L1331.16 280.6C1348.76 280.067 1361.56 278.733 1369.56 276.6C1377.83 274.467 1381.83 269.667 1381.56 262.2C1381.03 239.8 1363.7 228.6 1329.56 228.6C1312.5 228.6 1300.1 231.533 1292.36 237.4C1284.63 243 1279.96 251.267 1278.36 262.2H1240.76C1244.23 239.533 1253.96 222.733 1269.96 211.8C1285.96 200.6 1306.36 195 1331.16 195C1358.1 195 1379.56 201.667 1395.56 215C1411.83 228.067 1419.96 251.8 1419.96 286.2V403H1381.56V383.4C1381.56 375.933 1383.03 367.933 1385.96 359.4C1386.23 358.6 1386.5 357.533 1386.76 356.2C1387.03 354.867 1387.03 353.8 1386.76 353C1386.76 352.2 1386.36 351.667 1385.56 351.4L1384.36 351C1383.03 351 1382.1 351.667 1381.56 353C1381.3 354.333 1381.03 355.133 1380.76 355.4C1374.9 370.867 1365.3 383.267 1351.96 392.6C1338.63 401.667 1322.9 406.2 1304.76 406.2C1291.96 406.2 1280.1 403.667 1269.16 398.6C1258.5 393.267 1249.96 386.067 1243.56 377C1237.43 367.667 1234.36 357.267 1234.36 345.8ZM1381.56 292.6C1377.03 298.2 1370.63 302.067 1362.36 304.2C1354.36 306.333 1342.36 308.467 1326.36 310.6C1323.43 310.867 1318.1 311.533 1310.36 312.6C1297.56 314.467 1288.1 317.933 1281.96 323C1275.83 327.8 1272.76 334.733 1272.76 343.8C1272.76 351.8 1275.7 358.467 1281.56 363.8C1287.7 369.133 1296.63 371.8 1308.36 371.8C1320.9 371.8 1332.63 369.133 1343.56 363.8C1354.76 358.2 1363.83 349.533 1370.76 337.8C1377.96 325.8 1381.56 310.733 1381.56 292.6ZM1526.99 121.4L1652.59 370.6C1653.66 372.2 1654.59 373 1655.39 373C1657.26 373 1658.19 372.2 1658.19 370.6C1658.19 369.267 1657.79 367.8 1656.99 366.2C1653.52 358.2 1651.79 348.067 1651.79 335.8V121.4H1693.39V403H1629.39L1503.79 153.8C1503.52 153 1502.99 152.333 1502.19 151.8C1501.66 151.267 1500.99 151.133 1500.19 151.4C1498.86 151.933 1498.19 152.867 1498.19 154.2C1498.19 155.267 1498.59 156.6 1499.39 158.2C1502.86 166.2 1504.59 176.333 1504.59 188.6V403H1462.99V121.4H1526.99ZM1823.03 195C1843.03 195 1860.5 199.667 1875.43 209C1890.63 218.333 1902.23 231.133 1910.23 247.4C1918.23 263.4 1922.23 281.133 1922.23 300.6C1922.23 320.067 1918.23 337.933 1910.23 354.2C1902.23 370.2 1890.63 382.867 1875.43 392.2C1860.5 401.533 1843.03 406.2 1823.03 406.2C1803.03 406.2 1785.43 401.533 1770.23 392.2C1755.3 382.867 1743.83 370.2 1735.83 354.2C1727.83 337.933 1723.83 320.067 1723.83 300.6C1723.83 281.133 1727.83 263.4 1735.83 247.4C1743.83 231.133 1755.3 218.333 1770.23 209C1785.43 199.667 1803.03 195 1823.03 195ZM1823.03 371C1841.7 371 1856.5 364.333 1867.43 351C1878.36 337.4 1883.83 320.6 1883.83 300.6C1883.83 280.6 1878.36 263.933 1867.43 250.6C1856.5 237 1841.7 230.2 1823.03 230.2C1804.36 230.2 1789.56 237 1778.63 250.6C1767.7 263.933 1762.23 280.6 1762.23 300.6C1762.23 320.6 1767.7 337.4 1778.63 351C1789.56 364.333 1804.36 371 1823.03 371ZM2139.62 403H2101.22V385.8C2101.22 378.6 2102.56 371.4 2105.22 364.2C2106.29 362.067 2106.82 360.333 2106.82 359C2106.82 357.4 2106.02 356.467 2104.42 356.2H2103.62C2102.29 356.2 2101.22 357.4 2100.42 359.8C2095.62 374.2 2086.96 385.533 2074.42 393.8C2062.16 402.067 2047.89 406.2 2031.62 406.2C2014.29 406.2 1998.69 401.667 1984.82 392.6C1971.22 383.533 1960.56 371 1952.82 355C1945.09 338.733 1941.22 320.6 1941.22 300.6C1941.22 280.6 1945.09 262.6 1952.82 246.6C1960.56 230.333 1971.22 217.667 1984.82 208.6C1998.69 199.533 2014.29 195 2031.62 195C2047.89 195 2062.29 199.133 2074.82 207.4C2087.36 215.667 2095.89 226.733 2100.42 240.6C2101.49 244.067 2103.09 245.4 2105.22 244.6C2106.56 244.333 2107.22 243.533 2107.22 242.2C2107.22 241.133 2106.96 240.067 2106.42 239C2105.89 237.667 2105.49 236.733 2105.22 236.2C2102.56 229.267 2101.22 221.933 2101.22 214.2V115H2139.62V403ZM2039.62 371C2051.36 371 2061.89 367.8 2071.22 361.4C2080.82 355 2088.16 346.467 2093.22 335.8C2098.56 324.867 2101.22 313.133 2101.22 300.6C2101.22 288.067 2098.56 276.467 2093.22 265.8C2088.16 254.867 2080.82 246.2 2071.22 239.8C2061.89 233.4 2051.36 230.2 2039.62 230.2C2020.42 230.2 2005.62 237 1995.22 250.6C1984.82 263.933 1979.62 280.6 1979.62 300.6C1979.62 320.6 1984.82 337.4 1995.22 351C2005.62 364.333 2020.42 371 2039.62 371ZM2355.69 297.8C2355.69 302.6 2355.29 307.267 2354.49 311.8H2201.69C2203.02 328.867 2209.29 343 2220.49 354.2C2231.69 365.4 2246.22 371 2264.09 371C2277.42 371 2287.82 367.933 2295.29 361.8C2303.02 355.4 2308.76 346.067 2312.49 333.8H2352.09C2347.56 354.6 2337.69 371.933 2322.49 385.8C2307.56 399.4 2287.82 406.2 2263.29 406.2C2242.49 406.2 2224.49 401.533 2209.29 392.2C2194.36 382.867 2183.02 370.2 2175.29 354.2C2167.56 338.2 2163.69 320.333 2163.69 300.6C2163.69 280.333 2167.82 262.2 2176.09 246.2C2184.36 230.2 2195.96 217.667 2210.89 208.6C2226.09 199.533 2243.29 195 2262.49 195C2278.49 195 2293.56 198.733 2307.69 206.2C2322.09 213.4 2333.69 224.733 2342.49 240.2C2351.29 255.667 2355.69 274.867 2355.69 297.8ZM2317.29 279.8C2315.96 264.333 2310.62 251.933 2301.29 242.6C2291.96 233.267 2279.69 228.6 2264.49 228.6C2246.62 228.6 2232.76 233.267 2222.89 242.6C2213.29 251.933 2206.89 264.333 2203.69 279.8H2317.29Z" fill="white"/>
<path fill-rule="evenodd" clip-rule="evenodd" d="M488.787 42H0V136.667H190.019L189.679 136.839H360.864L361.204 136.667H488.787V42ZM361.204 136.667L453.04 90.1493H281.855L190.019 136.667H361.204ZM488.787 156.953H0V251.62H488.787V156.953ZM0 271.906H488.787V366.573H360.997L453.04 318.493H281.855L189.812 366.573H0V271.906ZM189.812 366.573L189.679 366.642H360.864L360.997 366.573H189.812ZM488.787 386.858H0V481.525H488.787V386.858ZM125.99 438.137L33.5585 481.179H205.218L297.65 438.137H125.99ZM31.3699 251.376L123.546 197.391H294.732L202.555 251.376H31.3699Z" fill="white"/>
</svg>
